<?xml version="1.0" standalone="no"?><!DOCTYPE svg PUBLIC "-//W3C//DTD SVG 1.1//EN" "http://www.w3.org/Graphics/SVG/1.1/DTD/svg11.dtd"><svg t="1589782840506" class="icon" viewBox="0 0 1024 1024" version="1.1" xmlns="http://www.w3.org/2000/svg" p-id="12846" xmlns:xlink="http://www.w3.org/1999/xlink" width="200" height="200"><defs><style type="text/css"></style></defs><path d="M201.3 917.8l-14.2-5.7-100.7-98.8-6-14.1-1.2-141 5.7-14.2 98.9-100.6 14.1-6 141.1-1.2 14.2 5.7 100.7 98.9 6 14.1 1.2 141-5.7 14.2-98.9 100.6-14.1 6-141.1 1.1z m-80.9-127.3l88.8 87.2 124.6-1.1 87.3-88.8-1.1-124.4-88.8-87.2-124.6 1.1-87.3 88.8 1.1 124.4zM201.3 487.9l-14.2-5.7-100.7-98.9-6-14.1-1.2-141 5.7-14.2 98.9-100.6 14.1-6 141.1-1.2 14.2 5.7 100.7 98.9 6 14.1 1.2 141-5.7 14.2-98.9 100.6-14.1 6-141.1 1.2z m-80.9-127.3l88.8 87.2 124.6-1.1 87.3-88.8-1.1-124.4-88.8-87.2-124.6 1.1-87.3 88.8 1.1 124.4z" fill="#003DE0" p-id="12847"></path><path d="M762.5 113L893 166.9 947 297l-54 130.1L762.5 481 632 427.1 578 297l54-130.1z" fill="#5C7ED7" p-id="12848"></path><path d="M762.5 481.5l-0.2-0.1-130.7-54-0.1-0.2-54-130.2 0.1-0.2 54.1-130.3 0.2-0.1 130.7-54 0.2 0.1 130.7 54 0.1 0.2L947.5 297l-0.1 0.2-54.1 130.3-0.2 0.1-130.6 53.9z m-130.1-54.8l130.1 53.7 130.1-53.7L946.5 297l-53.9-129.7-130.1-53.8-130.1 53.7L578.5 297l53.9 129.7z" fill="#5C7ED7" p-id="12849"></path><path d="M692.7 917.8l-14.2-5.7-100.7-98.9-6-14.1-1.2-141 5.7-14.2 98.9-100.6 14.1-6 141.1-1.2 14.2 5.7 100.7 98.9 6 14.1 1.2 141-5.7 14.2-98.9 100.6-14.1 6-141.1 1.2z m-80.9-127.3l88.8 87.2 124.6-1.1 87.3-88.8-1.1-124.5-88.8-87.2-124.6 1.2-87.3 88.8 1.1 124.4z" fill="#003DE0" p-id="12850"></path></svg>