<?xml version="1.0" standalone="no"?><!DOCTYPE svg PUBLIC "-//W3C//DTD SVG 1.1//EN" "http://www.w3.org/Graphics/SVG/1.1/DTD/svg11.dtd"><svg t="1590044171842" class="icon" viewBox="0 0 1024 1024" version="1.1" xmlns="http://www.w3.org/2000/svg" p-id="6201" xmlns:xlink="http://www.w3.org/1999/xlink" width="200" height="200"><defs><style type="text/css"></style></defs><path d="M631.221691 672.051037s-7.349282-8.165869-7.349283-13.065391V604.274322L409.926635 614.889952s2.449761 65.326954-2.449761 71.043062c0 0-49.811802 13.065391-42.46252 28.580543 15.515152 32.663477 83.291866 77.575758 129.837321 80.842105 60.427432 4.082935 105.339713-0.816587 141.269537-24.497608 22.864434-15.515152 26.947368-84.92504-4.899521-98.807017z" fill="#FCE7D4" p-id="6202"></path><path d="M662.251994 464.637959s-4.082935 75.942584-5.716109 81.658692c-2.449761 10.61563-6.532695 20.414673-12.248804 29.397129-13.881978 22.047847-28.580542 42.46252-45.728867 62.060606-8.165869 8.165869-25.314195 34.296651-35.113238 36.746411-15.515152 4.082935-31.84689 7.349282-48.178628 8.16587-10.61563-0.816587-47.362041-5.716108-55.527911-10.61563s-35.929825-38.379585-58.794258-68.593302-35.113238-55.527911-36.746412-63.69378c-1.633174-12.248804-2.449761-23.681021-2.449761-35.929824l-4.082934 0.816587s-0.816587 8.165869-7.349283 8.982456c-9.799043 1.633174-15.515152-11.432217-17.964912-18.781499-4.082935-12.248804-2.449761-26.130781-6.532695-39.196173s-25.314195-56.344498-8.982456-67.776714c14.698565-9.799043 26.947368 4.082935 31.84689 17.148325 1.633174 4.082935 2.449761 8.982456 3.266347 13.881978l2.449761-0.816587v-41.645933c0.816587-31.84689-8.982456-67.776715 3.266348-98.807018 39.196172-102.073365 76.759171-106.1563 168.216906-108.60606 81.658692-2.449761 127.38756 63.69378 133.103668 93.907496 5.716108 24.497608 8.165869 48.995215 7.349282 73.492823-1.633174 22.864434-4.082935 78.392344-4.082934 78.392344l2.44976 0.816587c3.266348-8.982456 6.532695-18.781499 10.61563-26.947368 3.266348-7.349282 11.432217-10.61563 18.7815-8.165869 7.349282 3.266348 10.61563 11.432217 8.165869 18.781499-2.449761 8.982456-6.532695 34.296651-8.165869 44.095694-0.816587 7.349282-0.816587 14.698565 0 22.864433 0 6.532695-3.266348 30.213716-13.065391 30.213716-7.349282-0.816587-22.047847-0.816587-18.781499-31.846889z" fill="#FCE7D4" p-id="6203"></path><path d="M394.411483 828.019139h253.141946v42.46252h-253.141946zM394.411483 923.559809h253.141946v42.46252h-253.141946z" fill="#F44711" p-id="6204"></path><path d="M875.38118 574.877193s-54.711324-33.480064-61.244019-40.829346c-18.781499-21.23126-64.510367-12.248804-75.125997 0.816587s-8.982456 35.929825-7.349282 40.012759 35.929825 31.030303 50.628389 34.296651 20.414673-2.449761 21.23126 6.532695-7.349282 22.864434-4.899521 36.746412-7.349282 19.598086 4.899521 33.480063c10.61563 13.881978 18.781499 30.213716 25.314195 46.545455 3.266348 7.349282 21.23126 10.61563 33.480063 13.881978s13.065391 57.977671 13.881978 97.173843-0.816587 46.545455 10.61563 81.658692 13.881978 27.763955 2.449761 51.444977-4.899522 32.663477 0.816587 36.746411 4.082935 6.532695 21.23126-12.248804 9.799043-40.012759 13.065391-68.593301 6.532695-57.977671 6.532695-57.977672l11.432217 24.497608s17.964912-209.046252 19.598086-228.644338-22.864434-71.043062-39.196172-89.824562-47.362041-5.716108-47.362042-5.716108z" fill="#3CAA33" p-id="6205"></path><path d="M781.473684 553.645933c0 6.532695-12.248804 10.61563-15.515151 10.61563s-4.082935-2.449761-4.082935-9.799043 7.349282-16.331738 10.61563-16.331739 8.982456 8.982456 8.982456 15.515152z" fill="#020202" p-id="6206"></path><path d="M727.578947 583.859649c4.899522-5.716108 13.065391-8.165869 20.414673-6.532695 11.432217 2.449761 37.562998 8.982456 40.829347 15.515151s11.432217 17.964912 0 17.964913-31.030303-7.349282-31.84689 4.082934 13.065391 22.864434 4.082934 21.23126c-8.165869 0-16.331738-4.899522-19.598086-12.248804-4.899522-9.799043-18.781499-22.864434-13.881978-40.012759z" fill="#F99A12" p-id="6207"></path><path d="M1002.76874 1020.733652s-4.899522-52.261563-16.331738-111.055821c-21.23126-78.392344-28.580542-119.221691-80.842106-145.352472-55.527911-27.763955-178.015949-56.344498-230.277512-67.776715-8.982456-15.515152-39.196172-32.663477-35.113237-14.698564 4.899522 20.414673 6.532695 34.296651-5.716109 44.91228-10.61563 11.432217-23.681021 19.598086-38.379585 24.497608-17.148325 4.899522-7.349282 65.326954-7.349282 65.326954-4.899522 1.633174-10.61563 3.266348-16.331739 3.266348h-17.964912l1.633174 204.14673M469.53748 1020.733652l0.816587-200.063796h-18.781499c-4.082935 0-8.982456-0.816587-13.065391-2.44976 0.816587 0 0.816587-0.816587 0.816587-1.633174 0 0 8.982456-60.427432-7.349282-65.326954-14.698565-4.899522-27.763955-13.065391-38.379586-24.497608-12.248804-10.61563-17.964912-24.497608-13.06539-44.91228 4.082935-17.964912-19.598086-1.633174-27.763956 13.06539-48.995215 10.61563-178.015949 40.012759-235.177033 68.593302-52.261563 26.130781-59.610845 66.960128-80.842106 145.352472-16.331738 73.492823-17.964912 111.055821-17.964912 111.055821" fill="#202133" p-id="6208"></path><path d="M850.066986 740.644338c-10.61563-2.449761-17.148325-12.248804-27.763956-5.716108-8.982456 5.716108-16.331738 13.881978-22.047847 22.864433-4.082935 6.532695-6.532695 13.881978-8.165869 21.23126-1.633174 6.532695-0.816587 13.881978 1.633174 20.414673 2.449761 2.449761 7.349282-19.598086 13.881978-26.130781 4.082935-4.899522 11.432217-12.248804 19.598086-9.799043-0.816587 3.266348-2.449761 6.532695-4.082935 8.982456-0.816587 4.082935-1.633174 8.165869-1.633174 12.248804 0.816587 9.799043 5.716108 18.781499 13.881978 24.497608 2.449761 1.633174 4.899522 3.266348 8.165869 3.266347s6.532695-2.449761 8.165869-5.716108c-6.532695 0-8.982456-4.899522-11.432216-11.432217-2.449761-5.716108-2.449761-13.065391 0.816587-18.781499 2.449761-5.716108 5.716108-10.61563 10.615629-14.698565 5.716108-4.082935 13.065391-6.532695 18.7815-10.61563l-9.799043-4.899521c-3.266348-1.633174-5.716108-2.449761-8.982457-3.266348l-1.633173-2.449761z" fill="#F99A12" p-id="6209"></path><path d="M681.033493 863.948963m-26.947369 0a26.947368 26.947368 0 1 0 53.894737 0 26.947368 26.947368 0 1 0-53.894737 0Z" fill="#E0BE2F" p-id="6210"></path><path d="M681.033493 968.472089m-26.947369 0a26.947368 26.947368 0 1 0 53.894737 0 26.947368 26.947368 0 1 0-53.894737 0Z" fill="#E0BE2F" p-id="6211"></path><path d="M309.486443 863.948963m-26.947368 0a26.947368 26.947368 0 1 0 53.894737 0 26.947368 26.947368 0 1 0-53.894737 0Z" fill="#E0BE2F" p-id="6212"></path><path d="M309.486443 968.472089m-26.947368 0a26.947368 26.947368 0 1 0 53.894737 0 26.947368 26.947368 0 1 0-53.894737 0Z" fill="#E0BE2F" p-id="6213"></path><path d="M609.990431 489.952153c13.881978 4.899522 26.947368 12.248804 40.012759 19.598086 8.165869 4.899522 24.497608 17.148325 19.598086 28.580542l-3.266348 8.16587c4.082935 6.532695 8.165869 13.065391 13.065391 18.781499 8.165869 10.61563 11.432217 23.681021 10.61563 37.562998-0.816587 7.349282-6.532695 13.881978-13.881978 14.698565-3.266348-0.816587-6.532695-1.633174-10.61563-2.449761 4.082935 1.633174 0.816587 14.698565 0.816587 17.148326-4.082935 16.331738-10.61563 40.012759-31.84689 36.746411-4.899522 13.065391-9.799043 25.314195-16.331738 36.746411-8.165869 10.61563-22.047847 14.698565-32.663477 5.716109 0.816587 0.816587-8.165869 13.881978-8.982456 15.515151-4.082935 5.716108-8.982456 9.799043-14.698565 12.248804-14.698565 6.532695-29.397129-7.349282-40.012759-15.515151-5.716108 4.899522-12.248804 8.982456-18.781499 13.065391-19.598086 8.165869-35.929825 0.816587-44.095694-17.148326 0 0-8.982456 8.982456-15.515151 8.982456-12.248804-1.633174-23.681021-8.165869-31.030303-17.964912-4.082935-6.532695-7.349282-13.881978-9.799044-22.047847-4.899522 4.899522-9.799043 8.165869-15.515151 4.899522-9.799043-6.532695-17.964912-15.515152-22.864434-26.947369-1.633174-2.449761-7.349282-26.130781-4.082934-27.763955 0 0-8.982456 3.266348-13.881978-0.816587-8.982456-8.165869-8.982456-38.379585-4.082935-48.178628 6.532695-10.61563 13.065391-21.23126 21.23126-31.030303 0-0.816587-4.082935-10.61563-4.082934-11.432217-3.266348-17.148325 9.799043-27.763955 22.047847-36.746412 13.065391-10.61563 27.763955-17.964912 44.095693-22.047847 22.864434-4.899522 54.711324-11.432217 54.711324-11.432217l4.899522 17.964913s-35.113238 11.432217-49.811803 25.314194-30.213716 31.84689-29.397129 53.894737-0.816587 36.746411 17.964912 42.46252 52.261563 14.698565 63.69378 6.532695 22.864434-17.964912 22.864434-17.964912l24.497608 1.633174c6.532695 10.61563 18.781499 17.148325 31.030303 17.148325 20.414673-1.633174 49.811802-3.266348 50.628389-29.397129s-0.816587-52.261563-11.432217-61.244019-48.178628-31.84689-48.178628-31.84689l12.248804-24.497608c0.816587-4.082935 35.113238 10.61563 38.379585 12.248804l2.449761 0.816587z" fill="#7F500B" p-id="6214"></path><path d="M516.899522 447.489633s10.61563 19.598086 19.598086 22.047847 38.379585 0 37.562998 16.331739-20.414673 36.746411-39.196172 36.746411c-13.065391 0-25.314195-3.266348-36.746412-9.799043-10.61563-6.532695-31.030303-33.480064-20.414673-45.728868" fill="#FCE7D4" p-id="6215"></path><path d="M551.196172 583.859649c-6.532695 0-12.248804-0.816587-18.781499-3.266348-6.532695-4.082935-11.432217-10.61563-13.881978-17.148325-1.633174-3.266348-3.266348-6.532695-5.716108-8.982456l29.397129-12.248804c4.899522-2.449761 9.799043-4.082935 15.515152-4.082935 8.982456 0 16.331738 3.266348 17.148325 8.982457 0 1.633174 0.816587 4.082935 1.633174 6.532695 3.266348 7.349282 3.266348 15.515152 0 22.864434-4.082935 4.082935-13.881978 7.349282-25.314195 7.349282z" fill="#FFFFFF" p-id="6216"></path><path d="M557.728868 540.580542c7.349282 0 13.065391 2.449761 13.881977 6.532696 0 1.633174 0.816587 4.082935 1.633174 6.532695 2.449761 6.532695 3.266348 13.881978 0.816587 20.414673-5.716108 5.716108-13.881978 8.165869-22.047847 7.349282-5.716108 0-11.432217-0.816587-17.148325-2.44976-4.899522-2.449761-8.982456-8.982456-12.248804-16.331739-1.633174-2.449761-2.449761-4.082935-4.082935-6.532695l26.130782-11.432217c2.449761-2.449761 7.349282-4.082935 13.065391-4.082935m-0.816587-5.716108c-5.716108 0-11.432217 1.633174-16.331739 4.082934l-32.663477 13.881978c7.349282 8.982456 12.248804 26.130781 22.864434 31.030303 6.532695 2.449761 13.065391 3.266348 19.598086 3.266348 11.432217 0 22.864434-2.449761 27.763956-9.799043 5.716108-8.982456 0.816587-22.047847-0.816587-31.030303-1.633174-7.349282-10.61563-11.432217-20.414673-11.432217z" p-id="6217"></path><path d="M497.301435 380.529506c0 25.314195-28.580542 56.344498-53.894736 56.344497s-55.527911-26.947368-55.527911-52.261563 33.480064-34.296651 58.794258-34.296651 50.628389 4.899522 50.628389 30.213717z" fill="#020202" p-id="6218"></path><path d="M601.824561 381.346093c0 12.248804-4.899522 22.047847-10.61563 22.047846S581.409888 393.594896 581.409888 381.346093s0-22.047847 10.61563-22.047847c6.532695 0 9.799043 9.799043 9.799043 22.047847z" fill="#FFFFFF" p-id="6219"></path><path d="M349.499203 240.076555s-117.588517 33.480064-124.121213 80.842105-9.799043 89.007974-9.799043 89.007975c37.562998-12.248804 71.859649-35.113238 97.173844-65.326954 25.314195-28.580542 38.379585-66.143541 36.746412-104.523126z" fill="#F44711" p-id="6220"></path><path d="M339.700159 242.526316s-107.789474 80.842105-100.440191 128.204147c4.899522 26.947368 6.532695 54.711324 5.716109 82.475279 0 0 62.877193-38.379585 89.824561-99.623605 15.515152-35.113238 17.964912-75.125997 4.899521-111.055821z" fill="#F44711" p-id="6221"></path><path d="M341.333333 315.202552c3.266348 2.449761 6.532695 2.449761 10.61563 1.633174C455.655502 301.320574 551.196172 285.805423 654.902711 270.290271c2.449761 0 5.716108-0.816587 7.349283-3.266348 2.449761-4.082935 3.266348-8.165869 2.44976-12.248803-0.816587-17.964912-13.065391-31.030303-17.964912-48.178629-11.432217-48.995215-53.07815-85.741627-102.889952-91.457735-49.811802-5.716108-122.488038 4.082935-162.500797 45.728868-15.515152 17.964912-26.947368 38.379585-33.480064 61.244019-6.532695 22.864434-12.248804 45.728868-16.331739 69.409888-0.816587 5.716108 0 11.432217 3.266348 16.331739 0.816587 0 6.532695 7.349282 6.532695 7.349282z" fill="#F44711" p-id="6222"></path></svg>