<?xml version="1.0" standalone="no"?><!DOCTYPE svg PUBLIC "-//W3C//DTD SVG 1.1//EN" "http://www.w3.org/Graphics/SVG/1.1/DTD/svg11.dtd"><svg t="1589860911612" class="icon" viewBox="0 0 1024 1024" version="1.1" xmlns="http://www.w3.org/2000/svg" p-id="1067" xmlns:xlink="http://www.w3.org/1999/xlink" width="200" height="200"><defs><style type="text/css"></style></defs><path d="M512 46.240686C737.076541 46.240686 919.438248 254.786182 919.438248 512s-182.477309 465.759314-407.55385 465.759314S104.44615 769.271619 104.44615 512 286.923459 46.240686 512 46.240686m0-46.240686c-122.422217 0-236.983518 54.043802-322.991194 152.189659C104.44615 248.543689 58.205464 376.399187 58.205464 512s46.240686 263.39851 130.803342 359.810341c85.892075 98.261459 200.568977 152.189659 322.991194 152.189659s236.983518-54.043802 322.991194-152.189659C919.438248 775.39851 965.678934 647.369609 965.678934 512S919.438248 248.543689 834.991194 152.189659C749.099119 54.043802 634.364416 0 512 0z" fill="#582C77" p-id="1068"></path><path d="M104.44615 512a465.759314 407.55385 90 1 0 815.1077 0 465.759314 407.55385 90 1 0-815.1077 0Z" fill="#582C77" p-id="1069"></path><path d="M827.245879 498.648002l48.783925-18.14947a4.103861 4.103861 0 0 0 2.601038-3.988259c-15.548431-241.954392-183.170919-432.466019-387.843757-432.466019a327.037254 327.037254 0 0 0-43.350643 3.005644 3.930458 3.930458 0 0 0-3.294649 3.121247l-20.923911 103.463536a3.930458 3.930458 0 0 1-7.514111 0.578008l-33.119892-87.510499a3.988259 3.988259 0 0 0-5.086476-2.312034C217.215624 123.115828 100.746895 303.1655 101.72951 515.872657l2.71664 3.814857 80.921202 29.998645a3.930458 3.930458 0 0 1-0.578009 7.571913L108.607812 573.037706a3.988259 3.988259 0 0 0-3.121246 4.335064c25.952585 228.660194 188.546399 404.606006 385.300519 404.606006A327.44186 327.44186 0 0 0 575.118537 971.054414a3.930458 3.930458 0 0 0 2.890043-3.814857v-46.240686a3.930458 3.930458 0 0 1 7.282908-2.138632l23.756153 37.801761a3.872657 3.872657 0 0 0 4.797471 1.560624c152.825469-61.384511 263.39851-233.804471 265.883946-437.8993a4.04606 4.04606 0 0 0-3.179047-3.930459l-48.783924-10.172951a3.930458 3.930458 0 0 1-0.520208-7.571912z" fill="#FBC8D5" p-id="1070"></path><path d="M578.00858 970.245202a326.401445 326.401445 0 0 1-76.75954 11.560172c3.641454 0 7.282908 0.289004 10.982163 0.289004a359.290133 359.290133 0 0 0 65.777377-6.06909zM878.977647 479.747121l41.674419-15.201625C899.207948 228.313389 724.533755 44.044254 512.231203 44.044254h-10.982163C702.049221 50.749153 864.874238 240.451569 878.977647 479.747121zM879.84466 516.392865c-1.213818 207.158275-113.752089 382.294875-269.120795 442.927975l4.970874 7.860917c173.402574-51.442764 301.83608-228.949198 306.691353-441.656356z" fill="#F995B2" p-id="1071"></path><path d="M243.22601 381.427862a90.342741 63.580944 0 1 0 180.685482 0 90.342741 63.580944 0 1 0-180.685482 0Z" fill="#8DBFE6" p-id="1072"></path><path d="M604.596974 381.427862a90.342741 63.580944 0 1 0 180.685483 0 90.342741 63.580944 0 1 0-180.685483 0Z" fill="#8DBFE6" p-id="1073"></path><path d="M333.568751 468.18695C269.930007 468.18695 220.047866 430.038383 220.047866 381.485663s49.88214-86.701287 113.520885-86.701287 113.463084 38.090765 113.463085 86.701287-49.88214 86.701287-113.463085 86.701287z m0-127.161888C293.917363 341.025062 266.288553 362.295778 266.288553 381.485663s27.62881 40.460601 67.280198 40.4606 67.222398-21.328517 67.222398-40.4606-27.62881-40.460601-67.222398-40.460601zM694.939716 468.18695c-63.580944 0-113.463084-38.090765-113.463085-86.701287s49.82434-86.701287 113.463085-86.701287 113.463084 38.090765 113.463084 86.701287-49.82434 86.701287-113.463084 86.701287z m0-127.161888c-39.651389 0-67.222398 21.328517-67.222398 40.460601s27.571009 40.460601 67.222398 40.4606 67.222398-21.328517 67.222397-40.4606-27.686611-40.460601-67.222397-40.460601z" fill="#582C77" p-id="1074"></path><path d="M417.206593 694.188304a97.047641 71.557462 0 1 0 194.095281 0 97.047641 71.557462 0 1 0-194.095281 0Z" fill="#F995B2" p-id="1075"></path><path d="M514.254233 788.923911c-66.297584 0-120.167984-42.483631-120.167983-94.735607s53.8704-94.677805 120.167983-94.677805 120.110183 42.483631 120.110183 94.677805-53.8704 94.735606-120.110183 94.735607z m0-143.172726c-40.113795 0-73.927297 22.195529-73.927297 48.437119s33.813502 48.49492 73.927297 48.49492 73.869497-22.195529 73.869497-48.49492-33.813502-48.437119-73.869497-48.437119z" fill="#582C77" p-id="1076"></path><path d="M335.649582 184.962746a14.450214 14.450214 0 0 1-10.750959-24.102958 283.224204 283.224204 0 0 1 38.090765-35.258524 14.450214 14.450214 0 0 1 17.629262 23.120344 254.323775 254.323775 0 0 0-34.218108 31.617069A14.334613 14.334613 0 0 1 335.649582 184.962746zM240.046963 289.813502a14.103409 14.103409 0 0 1-7.745315-2.312034 14.392414 14.392414 0 0 1-4.392865-19.941296 296.634003 296.634003 0 0 1 60.864303-68.898623 14.450214 14.450214 0 0 1 18.380673 22.311131A265.537142 265.537142 0 0 0 252.242944 283.224204a14.508015 14.508015 0 0 1-12.195981 6.589298z" fill="#FFFFFF" p-id="1077"></path></svg>